#N canvas 807 290 669 542 10;
#X floatatom -21 -43 5 0 0 0 - - -;
#X obj 257 -36 vsl 15 48 0 100 0 0 empty empty empty 0 -9 0 10 -262144
-1 -1 235 1;
#X obj 55 210 +~;
#X obj 31 397 outlet~;
#X obj 259 -75 r \$1-freq-mod-amount;
#X obj 93 -43 hsl 128 15 0 50 0 0 empty empty empty -2 -8 0 10 -262144
-1 -1 1016 1;
#X obj 90 -75 r \$1-freq-mod-freq;
#X obj 0 263 phasor~;
#X obj 1 292 *~ 2;
#X obj 1 321 -~ 1;
#X floatatom 15 27 5 0 0 0 - - -;
#X obj 13 50 t b f;
#X obj 16 -4 r \$1-control-freq-multiply;
#X obj -10 114 * 1;
#X obj 54 262 osc~;
#X obj -21 -78 inlet;
#X obj 125 96 osc~;
#X obj 107 317 r \$1-vol;
#X obj 58 357 *~;
#X connect 0 0 13 0;
#X connect 1 0 16 1;
#X connect 2 0 14 0;
#X connect 4 0 1 0;
#X connect 5 0 16 0;
#X connect 6 0 5 0;
#X connect 7 0 8 0;
#X connect 8 0 9 0;
#X connect 10 0 11 0;
#X connect 11 0 13 0;
#X connect 11 1 13 1;
#X connect 12 0 10 0;
#X connect 13 0 2 1;
#X connect 14 0 18 0;
#X connect 15 0 0 0;
#X connect 16 0 2 0;
#X connect 17 0 18 1;
#X connect 18 0 3 0;
