#N canvas 772 172 669 542 10;
#X floatatom -21 -43 5 0 0 0 - - -;
#X obj 237 10 vsl 15 48 0 100 0 0 empty empty empty 0 -9 0 10 -262144
-1 -1 141 1;
#X obj 55 210 +~;
#X obj 125 96 sinGen;
#X obj 31 397 outlet~;
#X obj 329 -65 inlet freq-mod-amount;
#X obj 327 -27 r \$1-freq-mod-amount;
#X obj 94 -25 hsl 128 15 0 50 0 0 empty empty empty -2 -8 0 10 -262144
-1 -1 1016 1;
#X obj 104 -75 inlet freq-mod-freq;
#X obj 116 -53 r \$1-freq-mod-freq;
#X obj -21 -78 inlet control-freq;
#X obj 0 263 phasor~;
#X obj 1 292 *~ 2;
#X obj 1 321 -~ 1;
#X obj 14 6 inlet control-freq-multiply;
#X floatatom 16 53 5 0 0 0 - - -;
#X obj 14 76 t b f;
#X obj 32 28 r \$1-control-freq-multiply;
#X obj -10 114 * 1;
#X obj 72 287 osc~;
#X connect 0 0 18 0;
#X connect 1 0 3 1;
#X connect 2 0 19 0;
#X connect 3 0 2 0;
#X connect 5 0 1 0;
#X connect 6 0 1 0;
#X connect 7 0 3 0;
#X connect 8 0 7 0;
#X connect 9 0 7 0;
#X connect 10 0 0 0;
#X connect 11 0 12 0;
#X connect 12 0 13 0;
#X connect 14 0 15 0;
#X connect 15 0 16 0;
#X connect 16 0 18 0;
#X connect 16 1 18 1;
#X connect 17 0 15 0;
#X connect 18 0 2 1;
#X connect 19 0 4 0;
