#N canvas 259 168 450 300 10;
#X obj 21 41 inlet fire;
#X obj 122 41 inlet attack;
#X obj 221 42 inlet sustain;
#X obj 328 42 inlet decay;
#X msg 242 173 0 \$1;
#X obj 121 142 f;
#X obj 244 144 f;
#X obj 170 114 del;
#X obj 32 78 t b b;
#X obj 219 115 del;
#X msg 127 169 1 \$1;
#X obj 166 238 outlet~;
#X obj 176 203 line~;
#X connect 0 0 8 0;
#X connect 1 0 5 1;
#X connect 1 0 7 1;
#X connect 2 0 9 1;
#X connect 3 0 6 1;
#X connect 4 0 12 0;
#X connect 5 0 10 0;
#X connect 6 0 4 0;
#X connect 7 0 9 0;
#X connect 8 0 7 0;
#X connect 8 1 5 0;
#X connect 9 0 6 0;
#X connect 10 0 12 0;
#X connect 12 0 11 0;
