#N canvas 751 326 450 300 10;
#X obj 21 41 inlet fire;
#X msg 242 173 0 \$1;
#X obj 121 142 f;
#X obj 244 144 f;
#X obj 170 114 del;
#X obj 32 78 t b b;
#X obj 219 115 del;
#X obj 166 238 outlet~;
#X obj 176 203 line~;
#X obj 122 41 r setAttack;
#X obj 221 42 r setSustain;
#X obj 328 42 r setDecay;
#X msg 127 169 1 \$1;
#X obj 279 237 outlet end;
#X obj 320 197 del;
#X connect 0 0 5 0;
#X connect 1 0 8 0;
#X connect 2 0 12 0;
#X connect 3 0 1 0;
#X connect 3 0 14 0;
#X connect 4 0 6 0;
#X connect 5 0 4 0;
#X connect 5 1 2 0;
#X connect 6 0 3 0;
#X connect 8 0 7 0;
#X connect 9 0 2 1;
#X connect 9 0 4 1;
#X connect 10 0 6 1;
#X connect 11 0 3 1;
#X connect 12 0 8 0;
#X connect 14 0 13 0;
