#N canvas 264 277 802 545 10;
#X floatatom 20 56 5 0 0 0 - - -;
#X obj 31 134 pack 0 0 0;
#X obj 86 306 s \$0-4;
#X obj 72 334 s \$0-3;
#X obj 56 364 s \$0-2;
#X obj 44 396 s \$0-1;
#X obj 262 4 r \$0-1;
#X obj 262 72 r \$0-2;
#X obj 265 147 r \$0-3;
#X obj 265 214 r \$0-4;
#X obj 164 452 outlet~;
#X obj 11 2 inlet playNote;
#X obj 118 10 notein;
#X obj 36 28 bng 15 250 50 0 empty empty empty 17 7 0 10 -262144 -1
-1;
#X obj 32 173 route 1 2 3 4 5;
#X obj 268 278 r \$0-5;
#X obj 98 275 s \$0-5;
#X obj 33 95 poly 5 1;
#X obj 153 408 catch~ \$0-out;
#X obj 263 32 \$1 \$0-out 1;
#X obj 261 108 \$1 \$0-out 2;
#X obj 265 181 \$1 \$0-out 3;
#X obj 264 248 \$1 \$0-out 4;
#X obj 267 312 \$1 \$0-out 5;
#X connect 0 0 17 0;
#X connect 0 0 17 1;
#X connect 1 0 14 0;
#X connect 6 0 19 0;
#X connect 7 0 20 0;
#X connect 8 0 21 0;
#X connect 9 0 22 0;
#X connect 11 0 0 0;
#X connect 12 0 0 0;
#X connect 12 1 17 1;
#X connect 13 0 0 0;
#X connect 14 0 5 0;
#X connect 14 1 4 0;
#X connect 14 2 3 0;
#X connect 14 3 2 0;
#X connect 14 4 16 0;
#X connect 15 0 23 0;
#X connect 17 0 1 0;
#X connect 17 1 1 1;
#X connect 17 2 1 2;
#X connect 18 0 10 0;
