#N canvas 320 298 450 300 10;
#X obj 50 73 osc~ 440;
#X obj 136 104 vsl 15 50 0 1 0 0 empty empty Vol 0 -9 0 10 -262144
-1 -1 0 1;
#X floatatom 136 162 5 0 0 0 - - -, f 5;
#X obj 43 240 dac~;
#X obj 47 19 r playNote;
#X obj 47 150 *~ 0.1;
#X connect 0 0 5 0;
#X connect 1 0 2 0;
#X connect 2 0 5 1;
#X connect 4 0 0 0;
#X connect 5 0 3 0;
#X connect 5 0 3 1;
