#N canvas 490 82 771 431 10;
#X msg 356 20 \; playNote 440 \;;
#X obj 189 320 *~;
#X obj 157 72 t b f;
#X obj 154 177 envelope;
#X msg 335 68 \; setAttack 40 \; setSustain 0 \; setDecay 2000 \;;
#X obj 154 12 inlet;
#X floatatom 147 44 5 0 0 0 - - -;
#X obj 187 374 throw~ \$1;
#X obj 204 135 adder adder-1;
#X obj 308 135 adder adder-2;
#X obj 272 186 +~;
#X obj 272 225 *~ 0.5;
#X obj 52 139 switch~;
#X msg 77 189 0;
#X connect 1 0 7 0;
#X connect 2 0 3 0;
#X connect 2 1 8 0;
#X connect 2 1 9 0;
#X connect 3 0 1 1;
#X connect 3 1 13 0;
#X connect 5 0 6 0;
#X connect 5 0 12 0;
#X connect 6 0 2 0;
#X connect 8 0 10 0;
#X connect 9 0 10 1;
#X connect 10 0 11 0;
#X connect 11 0 1 0;
#X connect 13 0 12 0;
