#N canvas 542 175 450 300 10;
#X obj 43 34 inlet freq;
#X obj 58 93 osc~;
#X obj 61 194 outlet~;
#X obj 139 34 inlet level;
#X obj 73 146 *~;
#X connect 0 0 1 0;
#X connect 1 0 4 0;
#X connect 3 0 4 1;
#X connect 4 0 2 0;
